<svg xmlns="http://www.w3.org/2000/svg" xmlns:xlink="http://www.w3.org/1999/xlink" width="202" zoomAndPan="magnify" viewBox="0 0 151.5 30.000001" height="40" preserveAspectRatio="xMidYMid meet" version="1.0"><defs><g/><clipPath id="3852573f62"><path d="M 5 2 L 27 2 L 27 27 L 5 27 Z M 5 2 " clip-rule="nonzero"/></clipPath><clipPath id="2efe4ba2b1"><path d="M 12.835938 29.023438 L 2.195312 20.253906 L 18.8125 0.0898438 L 29.453125 8.863281 Z M 12.835938 29.023438 " clip-rule="nonzero"/></clipPath><clipPath id="03001ac030"><path d="M 12.835938 29.023438 L 2.195312 20.253906 L 18.8125 0.0898438 L 29.453125 8.863281 Z M 12.835938 29.023438 " clip-rule="nonzero"/></clipPath><clipPath id="c8f2dff6cd"><path d="M 21 7 L 24 7 L 24 14 L 21 14 Z M 21 7 " clip-rule="nonzero"/></clipPath><clipPath id="cdedb980df"><path d="M 12.835938 29.023438 L 2.195312 20.253906 L 18.8125 0.0898438 L 29.453125 8.863281 Z M 12.835938 29.023438 " clip-rule="nonzero"/></clipPath><clipPath id="76a13aac3a"><path d="M 12.835938 29.023438 L 2.195312 20.253906 L 18.8125 0.0898438 L 29.453125 8.863281 Z M 12.835938 29.023438 " clip-rule="nonzero"/></clipPath><clipPath id="4f75f38f06"><path d="M 19 5 L 20 5 L 20 7 L 19 7 Z M 19 5 " clip-rule="nonzero"/></clipPath><clipPath id="bf24e47bf7"><path d="M 12.835938 29.023438 L 2.195312 20.253906 L 18.8125 0.0898438 L 29.453125 8.863281 Z M 12.835938 29.023438 " clip-rule="nonzero"/></clipPath><clipPath id="a05f1a8e30"><path d="M 12.835938 29.023438 L 2.195312 20.253906 L 18.8125 0.0898438 L 29.453125 8.863281 Z M 12.835938 29.023438 " clip-rule="nonzero"/></clipPath><clipPath id="4fc91f9a9b"><path d="M 13 10 L 16 10 L 16 17 L 13 17 Z M 13 10 " clip-rule="nonzero"/></clipPath><clipPath id="077094377e"><path d="M 12.835938 29.023438 L 2.195312 20.253906 L 18.8125 0.0898438 L 29.453125 8.863281 Z M 12.835938 29.023438 " clip-rule="nonzero"/></clipPath><clipPath id="4bf614c34a"><path d="M 12.835938 29.023438 L 2.195312 20.253906 L 18.8125 0.0898438 L 29.453125 8.863281 Z M 12.835938 29.023438 " clip-rule="nonzero"/></clipPath></defs><g clip-path="url(#3852573f62)"><g clip-path="url(#2efe4ba2b1)"><g clip-path="url(#03001ac030)"><path fill="#ffb81c" d="M 11.089844 16.644531 L 9.601562 18.449219 C 9.410156 18.316406 9.207031 18.207031 8.992188 18.121094 C 8.777344 18.035156 8.554688 17.980469 8.324219 17.953125 C 8.09375 17.921875 7.863281 17.921875 7.632812 17.949219 C 7.402344 17.976562 7.179688 18.035156 6.964844 18.117188 C 6.746094 18.199219 6.542969 18.308594 6.355469 18.441406 C 6.167969 18.578125 5.996094 18.730469 5.84375 18.90625 C 5.695312 19.082031 5.566406 19.277344 5.464844 19.484375 C 5.359375 19.691406 5.285156 19.90625 5.234375 20.132812 C 5.183594 20.359375 5.164062 20.589844 5.171875 20.820312 C 5.175781 21.054688 5.210938 21.28125 5.277344 21.503906 C 5.339844 21.726562 5.429688 21.9375 5.546875 22.140625 C 5.660156 22.339844 5.800781 22.523438 5.960938 22.6875 C 6.125 22.855469 6.304688 23 6.5 23.121094 C 6.699219 23.242188 6.90625 23.339844 7.128906 23.410156 C 7.351562 23.480469 7.574219 23.519531 7.808594 23.535156 C 8.039062 23.546875 8.269531 23.53125 8.496094 23.488281 C 8.496094 23.722656 8.527344 23.953125 8.585938 24.179688 C 8.644531 24.40625 8.730469 24.625 8.84375 24.828125 C 8.957031 25.035156 9.09375 25.222656 9.253906 25.394531 C 9.414062 25.5625 9.59375 25.710938 9.789062 25.839844 C 9.988281 25.964844 10.199219 26.066406 10.417969 26.136719 C 10.640625 26.210938 10.871094 26.257812 11.105469 26.273438 C 11.335938 26.289062 11.570312 26.277344 11.800781 26.234375 C 12.03125 26.195312 12.253906 26.125 12.464844 26.027344 C 12.679688 25.929688 12.875 25.808594 13.058594 25.660156 C 13.242188 25.515625 13.402344 25.347656 13.542969 25.160156 C 13.683594 24.972656 13.800781 24.769531 13.890625 24.554688 C 13.980469 24.339844 14.042969 24.113281 14.074219 23.882812 C 14.109375 23.652344 14.113281 23.417969 14.089844 23.183594 C 14.066406 22.953125 14.011719 22.726562 13.933594 22.507812 C 13.851562 22.285156 13.746094 22.082031 13.613281 21.886719 C 13.480469 21.695312 13.324219 21.519531 13.148438 21.367188 L 14.574219 19.636719 C 18.132812 19.691406 23.28125 16.371094 25.066406 14.207031 C 25.355469 13.859375 25.605469 13.484375 25.820312 13.085938 C 26.03125 12.691406 26.207031 12.273438 26.339844 11.84375 C 26.46875 11.410156 26.558594 10.96875 26.605469 10.519531 C 26.648438 10.070312 26.652344 9.621094 26.605469 9.171875 C 26.5625 8.722656 26.476562 8.28125 26.347656 7.847656 C 26.214844 7.414062 26.046875 7 25.832031 6.597656 C 25.621094 6.199219 25.371094 5.824219 25.085938 5.476562 C 24.800781 5.125 24.484375 4.808594 24.132812 4.519531 C 23.785156 4.234375 23.414062 3.980469 23.015625 3.769531 C 22.617188 3.554688 22.203125 3.382812 21.769531 3.25 C 21.335938 3.117188 20.894531 3.027344 20.445312 2.984375 C 19.996094 2.9375 19.546875 2.9375 19.097656 2.980469 C 18.648438 3.023438 18.207031 3.109375 17.773438 3.242188 C 17.339844 3.371094 16.925781 3.542969 16.527344 3.753906 C 16.128906 3.964844 15.753906 4.214844 15.402344 4.5 C 15.054688 4.789062 14.734375 5.105469 14.445312 5.453125 C 12.6875 7.585938 10.449219 13.148438 11.089844 16.644531 Z M 12.109375 21.519531 C 12.132812 21.648438 12.203125 21.746094 12.3125 21.808594 C 12.390625 21.855469 12.46875 21.90625 12.539062 21.964844 C 12.71875 22.113281 12.871094 22.289062 12.988281 22.492188 C 13.105469 22.695312 13.183594 22.910156 13.222656 23.144531 C 13.261719 23.375 13.261719 23.605469 13.21875 23.835938 C 13.175781 24.066406 13.09375 24.28125 12.972656 24.484375 C 12.851562 24.683594 12.695312 24.855469 12.511719 25.003906 C 12.328125 25.148438 12.125 25.257812 11.902344 25.332031 C 11.679688 25.402344 11.449219 25.433594 11.214844 25.425781 C 10.980469 25.414062 10.757812 25.363281 10.539062 25.273438 C 10.324219 25.179688 10.132812 25.054688 9.960938 24.894531 C 9.789062 24.734375 9.652344 24.546875 9.550781 24.335938 C 9.445312 24.125 9.382812 23.90625 9.359375 23.671875 C 9.335938 23.4375 9.351562 23.207031 9.410156 22.980469 C 9.457031 22.804688 9.410156 22.660156 9.269531 22.542969 C 9.128906 22.429688 8.976562 22.410156 8.8125 22.492188 C 8.601562 22.589844 8.378906 22.652344 8.148438 22.671875 C 7.914062 22.691406 7.683594 22.671875 7.457031 22.609375 C 7.234375 22.546875 7.023438 22.445312 6.835938 22.308594 C 6.644531 22.171875 6.484375 22.007812 6.355469 21.8125 C 6.226562 21.617188 6.132812 21.40625 6.082031 21.175781 C 6.027344 20.949219 6.015625 20.71875 6.042969 20.488281 C 6.074219 20.253906 6.140625 20.035156 6.25 19.828125 C 6.359375 19.621094 6.5 19.4375 6.671875 19.28125 C 6.847656 19.125 7.042969 19.003906 7.261719 18.917969 C 7.476562 18.832031 7.703125 18.785156 7.9375 18.78125 C 8.171875 18.777344 8.398438 18.8125 8.621094 18.890625 C 8.839844 18.964844 9.042969 19.078125 9.222656 19.230469 C 9.25 19.253906 9.277344 19.277344 9.300781 19.304688 L 9.355469 19.359375 C 9.445312 19.449219 9.550781 19.488281 9.675781 19.480469 C 9.800781 19.472656 9.902344 19.421875 9.984375 19.324219 L 11.378906 17.632812 C 11.574219 18.128906 11.875 18.550781 12.28125 18.898438 C 12.660156 19.203125 13.089844 19.410156 13.566406 19.515625 L 12.199219 21.175781 C 12.117188 21.277344 12.085938 21.390625 12.109375 21.519531 Z M 23.589844 5.179688 C 23.894531 5.429688 24.171875 5.710938 24.421875 6.015625 C 24.675781 6.324219 24.890625 6.652344 25.078125 7 C 25.261719 7.351562 25.414062 7.714844 25.527344 8.09375 C 25.640625 8.472656 25.714844 8.859375 25.753906 9.253906 C 25.792969 9.644531 25.792969 10.039062 25.75 10.433594 C 25.710938 10.828125 25.636719 11.214844 25.519531 11.59375 C 25.402344 11.96875 25.253906 12.335938 25.066406 12.683594 C 24.878906 13.03125 24.660156 13.359375 24.410156 13.664062 C 22.558594 15.90625 17.46875 18.980469 14.398438 18.785156 C 14.375 18.785156 14.351562 18.78125 14.328125 18.78125 C 13.769531 18.761719 13.269531 18.578125 12.824219 18.238281 C 10.375 16.21875 12.882812 8.691406 15.105469 5.996094 C 15.355469 5.691406 15.636719 5.414062 15.941406 5.164062 C 16.25 4.914062 16.578125 4.695312 16.925781 4.507812 C 17.277344 4.324219 17.640625 4.171875 18.019531 4.058594 C 18.398438 3.945312 18.785156 3.871094 19.179688 3.832031 C 19.574219 3.792969 19.964844 3.792969 20.359375 3.835938 C 20.753906 3.875 21.140625 3.953125 21.519531 4.066406 C 21.898438 4.183594 22.261719 4.332031 22.609375 4.519531 C 22.957031 4.707031 23.285156 4.925781 23.589844 5.179688 Z M 23.589844 5.179688 " fill-opacity="1" fill-rule="nonzero"/></g></g></g><g clip-path="url(#c8f2dff6cd)"><g clip-path="url(#cdedb980df)"><g clip-path="url(#76a13aac3a)"><path fill="#ffb81c" d="M 21.578125 7.894531 C 22.269531 8.75 22.542969 9.722656 22.390625 10.8125 C 22.289062 11.378906 22.058594 11.886719 21.703125 12.335938 C 21.628906 12.429688 21.601562 12.53125 21.613281 12.648438 C 21.625 12.761719 21.675781 12.855469 21.765625 12.929688 L 21.773438 12.9375 C 21.867188 13.007812 21.972656 13.039062 22.089844 13.023438 C 22.207031 13.011719 22.300781 12.957031 22.375 12.863281 C 22.820312 12.300781 23.105469 11.664062 23.230469 10.957031 C 23.324219 10.316406 23.285156 9.679688 23.113281 9.054688 C 22.941406 8.429688 22.652344 7.867188 22.242188 7.359375 C 22.226562 7.335938 22.203125 7.316406 22.183594 7.296875 C 22.097656 7.230469 22 7.199219 21.890625 7.203125 C 21.785156 7.207031 21.691406 7.25 21.613281 7.328125 C 21.535156 7.402344 21.492188 7.496094 21.488281 7.605469 C 21.480469 7.710938 21.511719 7.808594 21.578125 7.894531 Z M 21.578125 7.894531 " fill-opacity="1" fill-rule="nonzero"/></g></g></g><g clip-path="url(#4f75f38f06)"><g clip-path="url(#bf24e47bf7)"><g clip-path="url(#a05f1a8e30)"><path fill="#ffb81c" d="M 19.582031 6.644531 C 19.699219 6.632812 19.796875 6.582031 19.871094 6.492188 C 19.945312 6.398438 19.976562 6.296875 19.964844 6.179688 C 19.960938 6.121094 19.945312 6.070312 19.917969 6.019531 C 19.890625 5.96875 19.855469 5.925781 19.8125 5.890625 C 19.769531 5.855469 19.71875 5.828125 19.664062 5.8125 C 19.609375 5.792969 19.554688 5.789062 19.5 5.796875 C 19.382812 5.808594 19.285156 5.859375 19.210938 5.949219 C 19.136719 6.039062 19.105469 6.144531 19.117188 6.261719 C 19.132812 6.375 19.183594 6.46875 19.273438 6.542969 C 19.363281 6.617188 19.464844 6.652344 19.582031 6.644531 Z M 19.582031 6.644531 " fill-opacity="1" fill-rule="nonzero"/></g></g></g><g clip-path="url(#4fc91f9a9b)"><g clip-path="url(#077094377e)"><g clip-path="url(#4bf614c34a)"><path fill="#ffb81c" d="M 13.179688 15.816406 C 13.199219 15.929688 13.253906 16.023438 13.347656 16.089844 C 13.441406 16.160156 13.542969 16.183594 13.65625 16.167969 C 13.773438 16.152344 13.863281 16.101562 13.9375 16.011719 C 14.007812 15.917969 14.035156 15.816406 14.023438 15.703125 C 13.785156 13.941406 14.105469 12.292969 14.996094 10.75 C 15.046875 10.660156 15.0625 10.566406 15.042969 10.464844 C 15.027344 10.359375 14.976562 10.277344 14.894531 10.210938 C 14.878906 10.195312 14.859375 10.179688 14.835938 10.167969 C 14.734375 10.109375 14.625 10.097656 14.511719 10.128906 C 14.398438 10.15625 14.3125 10.222656 14.253906 10.328125 C 13.269531 12.035156 12.910156 13.863281 13.179688 15.816406 Z M 13.179688 15.816406 " fill-opacity="1" fill-rule="nonzero"/></g></g></g><g fill="#ffffff" fill-opacity="1"><g transform="translate(27.275955, 21.048375)"><g><path d="M 2.734375 -3.578125 C 2.734375 -3.023438 2.828125 -2.585938 3.015625 -2.265625 C 3.203125 -1.941406 3.519531 -1.78125 3.96875 -1.78125 C 4.332031 -1.78125 4.601562 -1.878906 4.78125 -2.078125 C 4.96875 -2.285156 5.0625 -2.539062 5.0625 -2.84375 L 7.234375 -2.84375 L 7.234375 -2.53125 C 7.234375 -1.726562 6.957031 -1.070312 6.40625 -0.5625 C 5.851562 -0.0625 5.023438 0.1875 3.921875 0.1875 C 3.117188 0.1875 2.457031 0.03125 1.9375 -0.28125 C 1.414062 -0.601562 1.035156 -1.050781 0.796875 -1.625 C 0.554688 -2.195312 0.4375 -2.847656 0.4375 -3.578125 L 0.4375 -4.109375 C 0.4375 -4.847656 0.554688 -5.5 0.796875 -6.0625 C 1.035156 -6.632812 1.414062 -7.078125 1.9375 -7.390625 C 2.457031 -7.710938 3.117188 -7.875 3.921875 -7.875 C 5.023438 -7.875 5.851562 -7.613281 6.40625 -7.09375 C 6.957031 -6.570312 7.234375 -5.882812 7.234375 -5.03125 L 7.234375 -4.703125 L 5.0625 -4.703125 C 5.0625 -5.503906 4.695312 -5.90625 3.96875 -5.90625 C 3.519531 -5.90625 3.203125 -5.75 3.015625 -5.4375 C 2.828125 -5.125 2.734375 -4.679688 2.734375 -4.109375 Z M 2.734375 -3.578125 "/></g></g></g><g fill="#ffffff" fill-opacity="1"><g transform="translate(34.920025, 21.048375)"><g><path d="M 3.078125 -11.609375 L 3.078125 -6.953125 C 3.328125 -7.234375 3.640625 -7.457031 4.015625 -7.625 C 4.390625 -7.789062 4.832031 -7.875 5.34375 -7.875 C 5.925781 -7.875 6.390625 -7.75 6.734375 -7.5 C 7.085938 -7.25 7.335938 -6.921875 7.484375 -6.515625 C 7.640625 -6.109375 7.71875 -5.675781 7.71875 -5.21875 L 7.71875 0 L 5.4375 0 L 5.4375 -4.828125 C 5.4375 -5.109375 5.363281 -5.359375 5.21875 -5.578125 C 5.082031 -5.796875 4.816406 -5.90625 4.421875 -5.90625 C 4.066406 -5.90625 3.773438 -5.816406 3.546875 -5.640625 C 3.316406 -5.472656 3.160156 -5.320312 3.078125 -5.1875 L 3.078125 0 L 0.78125 0 L 0.78125 -11.609375 Z M 3.078125 -11.609375 "/></g></g></g><g fill="#ffffff" fill-opacity="1"><g transform="translate(43.33285, 21.048375)"><g><path d="M 0.78125 0 L 0.78125 -7.6875 L 3.078125 -7.6875 L 3.078125 0 Z M 3.140625 -11.203125 L 3.140625 -8.78125 L 0.71875 -8.78125 L 0.71875 -11.203125 Z M 3.140625 -11.203125 "/></g></g></g><g fill="#ffffff" fill-opacity="1"><g transform="translate(47.191144, 21.048375)"><g><path d="M 2.734375 -3.578125 C 2.734375 -3.023438 2.828125 -2.585938 3.015625 -2.265625 C 3.203125 -1.941406 3.519531 -1.78125 3.96875 -1.78125 C 4.332031 -1.78125 4.601562 -1.878906 4.78125 -2.078125 C 4.96875 -2.285156 5.0625 -2.539062 5.0625 -2.84375 L 7.234375 -2.84375 L 7.234375 -2.53125 C 7.234375 -1.726562 6.957031 -1.070312 6.40625 -0.5625 C 5.851562 -0.0625 5.023438 0.1875 3.921875 0.1875 C 3.117188 0.1875 2.457031 0.03125 1.9375 -0.28125 C 1.414062 -0.601562 1.035156 -1.050781 0.796875 -1.625 C 0.554688 -2.195312 0.4375 -2.847656 0.4375 -3.578125 L 0.4375 -4.109375 C 0.4375 -4.847656 0.554688 -5.5 0.796875 -6.0625 C 1.035156 -6.632812 1.414062 -7.078125 1.9375 -7.390625 C 2.457031 -7.710938 3.117188 -7.875 3.921875 -7.875 C 5.023438 -7.875 5.851562 -7.613281 6.40625 -7.09375 C 6.957031 -6.570312 7.234375 -5.882812 7.234375 -5.03125 L 7.234375 -4.703125 L 5.0625 -4.703125 C 5.0625 -5.503906 4.695312 -5.90625 3.96875 -5.90625 C 3.519531 -5.90625 3.203125 -5.75 3.015625 -5.4375 C 2.828125 -5.125 2.734375 -4.679688 2.734375 -4.109375 Z M 2.734375 -3.578125 "/></g></g></g><g fill="#ffffff" fill-opacity="1"><g transform="translate(54.835214, 21.048375)"><g><path d="M 0.71875 0 L 0.71875 -11.609375 L 3.015625 -11.609375 L 3.015625 -5.078125 L 5.15625 -7.6875 L 7.890625 -7.6875 L 5.359375 -4.78125 L 7.890625 0 L 5.21875 0 L 3.78125 -2.96875 L 3.015625 -2.09375 L 3.015625 0 Z M 0.71875 0 "/></g></g></g><g fill="#ffffff" fill-opacity="1"><g transform="translate(62.986948, 21.048375)"><g><path d="M 7.640625 -3.015625 L 2.734375 -3.015625 C 2.773438 -2.484375 2.921875 -2.101562 3.171875 -1.875 C 3.421875 -1.65625 3.757812 -1.546875 4.1875 -1.546875 C 4.582031 -1.546875 4.894531 -1.640625 5.125 -1.828125 C 5.351562 -2.023438 5.46875 -2.238281 5.46875 -2.46875 L 7.640625 -2.46875 L 7.640625 -2.40625 C 7.640625 -1.925781 7.503906 -1.488281 7.234375 -1.09375 C 6.960938 -0.695312 6.566406 -0.382812 6.046875 -0.15625 C 5.535156 0.0703125 4.910156 0.1875 4.171875 0.1875 C 3.316406 0.1875 2.613281 0.0234375 2.0625 -0.296875 C 1.507812 -0.628906 1.097656 -1.085938 0.828125 -1.671875 C 0.566406 -2.253906 0.4375 -2.910156 0.4375 -3.640625 L 0.4375 -4.046875 C 0.4375 -4.796875 0.570312 -5.457031 0.84375 -6.03125 C 1.113281 -6.601562 1.519531 -7.050781 2.0625 -7.375 C 2.601562 -7.707031 3.273438 -7.875 4.078125 -7.875 C 4.890625 -7.875 5.554688 -7.707031 6.078125 -7.375 C 6.609375 -7.050781 7 -6.601562 7.25 -6.03125 C 7.507812 -5.457031 7.640625 -4.796875 7.640625 -4.046875 Z M 4.03125 -6.140625 C 3.238281 -6.140625 2.8125 -5.648438 2.75 -4.671875 L 5.328125 -4.671875 C 5.253906 -5.648438 4.820312 -6.140625 4.03125 -6.140625 Z M 4.03125 -6.140625 "/></g></g></g><g fill="#ffffff" fill-opacity="1"><g transform="translate(71.051655, 21.048375)"><g><path d="M 7.71875 0 L 5.4375 0 L 5.4375 -4.828125 C 5.4375 -5.109375 5.363281 -5.359375 5.21875 -5.578125 C 5.082031 -5.796875 4.816406 -5.90625 4.421875 -5.90625 C 4.066406 -5.90625 3.773438 -5.816406 3.546875 -5.640625 C 3.316406 -5.472656 3.160156 -5.320312 3.078125 -5.1875 L 3.078125 0 L 0.78125 0 L 0.78125 -5.515625 L 0.65625 -7.6875 L 2.703125 -7.6875 L 2.875 -6.703125 C 3.113281 -7.046875 3.4375 -7.328125 3.84375 -7.546875 C 4.25 -7.765625 4.75 -7.875 5.34375 -7.875 C 5.925781 -7.875 6.390625 -7.75 6.734375 -7.5 C 7.085938 -7.25 7.335938 -6.921875 7.484375 -6.515625 C 7.640625 -6.109375 7.71875 -5.675781 7.71875 -5.21875 Z M 7.71875 0 "/></g></g></g><g fill="#ffffff" fill-opacity="1"><g transform="translate(79.46448, 21.048375)"><g/></g></g><g fill="#ffffff" fill-opacity="1"><g transform="translate(82.365457, 21.048375)"><g><path d="M 5.34375 0 L 5.203125 -0.796875 C 4.929688 -0.503906 4.59375 -0.265625 4.1875 -0.078125 C 3.789062 0.0976562 3.320312 0.1875 2.78125 0.1875 C 2.21875 0.1875 1.757812 0.0820312 1.40625 -0.125 C 1.0625 -0.34375 0.8125 -0.628906 0.65625 -0.984375 C 0.507812 -1.335938 0.4375 -1.71875 0.4375 -2.125 L 0.4375 -2.265625 C 0.4375 -2.828125 0.550781 -3.269531 0.78125 -3.59375 C 1.019531 -3.925781 1.347656 -4.175781 1.765625 -4.34375 C 2.179688 -4.519531 2.65625 -4.648438 3.1875 -4.734375 L 4.96875 -5.015625 C 4.957031 -5.390625 4.878906 -5.671875 4.734375 -5.859375 C 4.585938 -6.046875 4.316406 -6.140625 3.921875 -6.140625 C 3.503906 -6.140625 3.226562 -6.035156 3.09375 -5.828125 C 2.957031 -5.628906 2.890625 -5.40625 2.890625 -5.15625 L 0.71875 -5.15625 L 0.71875 -5.28125 C 0.71875 -5.726562 0.816406 -6.148438 1.015625 -6.546875 C 1.210938 -6.941406 1.546875 -7.257812 2.015625 -7.5 C 2.492188 -7.75 3.148438 -7.875 3.984375 -7.875 C 4.828125 -7.875 5.484375 -7.757812 5.953125 -7.53125 C 6.429688 -7.300781 6.769531 -6.96875 6.96875 -6.53125 C 7.164062 -6.09375 7.265625 -5.566406 7.265625 -4.953125 L 7.265625 -2.171875 L 7.40625 0 Z M 3.625 -1.671875 C 3.957031 -1.671875 4.234375 -1.734375 4.453125 -1.859375 C 4.671875 -1.992188 4.84375 -2.125 4.96875 -2.25 L 4.96875 -3.65625 L 3.65625 -3.453125 C 3.300781 -3.398438 3.054688 -3.289062 2.921875 -3.125 C 2.785156 -2.96875 2.71875 -2.773438 2.71875 -2.546875 L 2.71875 -2.453125 C 2.71875 -2.253906 2.785156 -2.070312 2.921875 -1.90625 C 3.066406 -1.75 3.300781 -1.671875 3.625 -1.671875 Z M 3.625 -1.671875 "/></g></g></g><g fill="#ffffff" fill-opacity="1"><g transform="translate(90.328629, 21.048375)"><g><path d="M 7.71875 0 L 5.4375 0 L 5.4375 -4.828125 C 5.4375 -5.109375 5.363281 -5.359375 5.21875 -5.578125 C 5.082031 -5.796875 4.816406 -5.90625 4.421875 -5.90625 C 4.066406 -5.90625 3.773438 -5.816406 3.546875 -5.640625 C 3.316406 -5.472656 3.160156 -5.320312 3.078125 -5.1875 L 3.078125 0 L 0.78125 0 L 0.78125 -5.515625 L 0.65625 -7.6875 L 2.703125 -7.6875 L 2.875 -6.703125 C 3.113281 -7.046875 3.4375 -7.328125 3.84375 -7.546875 C 4.25 -7.765625 4.75 -7.875 5.34375 -7.875 C 5.925781 -7.875 6.390625 -7.75 6.734375 -7.5 C 7.085938 -7.25 7.335938 -6.921875 7.484375 -6.515625 C 7.640625 -6.109375 7.71875 -5.675781 7.71875 -5.21875 Z M 7.71875 0 "/></g></g></g><g fill="#ffffff" fill-opacity="1"><g transform="translate(98.741454, 21.048375)"><g><path d="M 3.40625 -7.875 C 3.863281 -7.875 4.253906 -7.796875 4.578125 -7.640625 C 4.898438 -7.492188 5.171875 -7.296875 5.390625 -7.046875 L 5.390625 -11.609375 L 7.671875 -11.609375 L 7.671875 -2.171875 L 7.8125 0 L 5.75 0 L 5.59375 -0.921875 C 5.375 -0.597656 5.085938 -0.332031 4.734375 -0.125 C 4.378906 0.0820312 3.9375 0.1875 3.40625 0.1875 C 2.707031 0.1875 2.148438 0.03125 1.734375 -0.28125 C 1.316406 -0.601562 1.015625 -1.050781 0.828125 -1.625 C 0.640625 -2.195312 0.546875 -2.847656 0.546875 -3.578125 L 0.546875 -4.109375 C 0.546875 -4.847656 0.640625 -5.5 0.828125 -6.0625 C 1.015625 -6.632812 1.316406 -7.078125 1.734375 -7.390625 C 2.148438 -7.710938 2.707031 -7.875 3.40625 -7.875 Z M 5.390625 -5.1875 C 5.285156 -5.320312 5.125 -5.472656 4.90625 -5.640625 C 4.695312 -5.816406 4.421875 -5.90625 4.078125 -5.90625 C 3.628906 -5.90625 3.304688 -5.75 3.109375 -5.4375 C 2.921875 -5.125 2.828125 -4.679688 2.828125 -4.109375 L 2.828125 -3.578125 C 2.828125 -3.023438 2.921875 -2.585938 3.109375 -2.265625 C 3.304688 -1.941406 3.628906 -1.78125 4.078125 -1.78125 C 4.421875 -1.78125 4.695312 -1.867188 4.90625 -2.046875 C 5.125 -2.222656 5.285156 -2.378906 5.390625 -2.515625 Z M 5.390625 -5.1875 "/></g></g></g><g fill="#ffffff" fill-opacity="1"><g transform="translate(107.183284, 21.048375)"><g/></g></g><g fill="#ffffff" fill-opacity="1"><g transform="translate(110.084262, 21.048375)"><g><path d="M 3.828125 -1.546875 C 4.203125 -1.546875 4.46875 -1.617188 4.625 -1.765625 C 4.78125 -1.910156 4.859375 -2.09375 4.859375 -2.3125 C 4.859375 -2.550781 4.78125 -2.726562 4.625 -2.84375 C 4.46875 -2.957031 4.164062 -3.035156 3.71875 -3.078125 C 2.632812 -3.160156 1.84375 -3.359375 1.34375 -3.671875 C 0.84375 -3.992188 0.59375 -4.515625 0.59375 -5.234375 L 0.59375 -5.375 C 0.59375 -5.957031 0.734375 -6.429688 1.015625 -6.796875 C 1.304688 -7.171875 1.695312 -7.441406 2.1875 -7.609375 C 2.675781 -7.785156 3.222656 -7.875 3.828125 -7.875 C 4.960938 -7.875 5.785156 -7.640625 6.296875 -7.171875 C 6.804688 -6.710938 7.0625 -6.066406 7.0625 -5.234375 L 7.0625 -5.171875 L 4.8125 -5.171875 C 4.8125 -5.472656 4.734375 -5.707031 4.578125 -5.875 C 4.429688 -6.050781 4.179688 -6.140625 3.828125 -6.140625 C 3.515625 -6.140625 3.273438 -6.078125 3.109375 -5.953125 C 2.941406 -5.828125 2.859375 -5.65625 2.859375 -5.4375 C 2.859375 -5.207031 2.929688 -5.035156 3.078125 -4.921875 C 3.222656 -4.816406 3.519531 -4.742188 3.96875 -4.703125 C 4.613281 -4.648438 5.175781 -4.554688 5.65625 -4.421875 C 6.132812 -4.285156 6.503906 -4.070312 6.765625 -3.78125 C 7.035156 -3.488281 7.171875 -3.070312 7.171875 -2.53125 L 7.171875 -2.390625 C 7.171875 -1.597656 6.890625 -0.96875 6.328125 -0.5 C 5.773438 -0.0390625 4.941406 0.1875 3.828125 0.1875 C 2.703125 0.1875 1.867188 -0.0507812 1.328125 -0.53125 C 0.785156 -1.007812 0.515625 -1.617188 0.515625 -2.359375 L 0.515625 -2.4375 L 2.78125 -2.4375 C 2.78125 -2.1875 2.859375 -1.972656 3.015625 -1.796875 C 3.171875 -1.628906 3.441406 -1.546875 3.828125 -1.546875 Z M 3.828125 -1.546875 "/></g></g></g><g fill="#ffffff" fill-opacity="1"><g transform="translate(117.742829, 21.048375)"><g><path d="M 3.75 -7.6875 L 5.71875 -7.6875 L 5.71875 -5.6875 L 3.75 -5.6875 L 3.75 -2.921875 C 3.75 -2.441406 3.847656 -2.128906 4.046875 -1.984375 C 4.253906 -1.847656 4.53125 -1.78125 4.875 -1.78125 C 5 -1.78125 5.132812 -1.789062 5.28125 -1.8125 C 5.4375 -1.84375 5.535156 -1.867188 5.578125 -1.890625 L 5.578125 0 C 5.503906 0.0390625 5.363281 0.0820312 5.15625 0.125 C 4.957031 0.164062 4.6875 0.1875 4.34375 0.1875 C 3.757812 0.1875 3.25 0.0976562 2.8125 -0.078125 C 2.382812 -0.265625 2.050781 -0.566406 1.8125 -0.984375 C 1.570312 -1.398438 1.453125 -1.960938 1.453125 -2.671875 L 1.453125 -5.6875 L 0.28125 -5.6875 L 0.28125 -7.6875 L 1.453125 -7.6875 L 1.453125 -9.875 L 3.75 -9.875 Z M 3.75 -7.6875 "/></g></g></g><g fill="#ffffff" fill-opacity="1"><g transform="translate(123.994426, 21.048375)"><g><path d="M 5.34375 0 L 5.203125 -0.796875 C 4.929688 -0.503906 4.59375 -0.265625 4.1875 -0.078125 C 3.789062 0.0976562 3.320312 0.1875 2.78125 0.1875 C 2.21875 0.1875 1.757812 0.0820312 1.40625 -0.125 C 1.0625 -0.34375 0.8125 -0.628906 0.65625 -0.984375 C 0.507812 -1.335938 0.4375 -1.71875 0.4375 -2.125 L 0.4375 -2.265625 C 0.4375 -2.828125 0.550781 -3.269531 0.78125 -3.59375 C 1.019531 -3.925781 1.347656 -4.175781 1.765625 -4.34375 C 2.179688 -4.519531 2.65625 -4.648438 3.1875 -4.734375 L 4.96875 -5.015625 C 4.957031 -5.390625 4.878906 -5.671875 4.734375 -5.859375 C 4.585938 -6.046875 4.316406 -6.140625 3.921875 -6.140625 C 3.503906 -6.140625 3.226562 -6.035156 3.09375 -5.828125 C 2.957031 -5.628906 2.890625 -5.40625 2.890625 -5.15625 L 0.71875 -5.15625 L 0.71875 -5.28125 C 0.71875 -5.726562 0.816406 -6.148438 1.015625 -6.546875 C 1.210938 -6.941406 1.546875 -7.257812 2.015625 -7.5 C 2.492188 -7.75 3.148438 -7.875 3.984375 -7.875 C 4.828125 -7.875 5.484375 -7.757812 5.953125 -7.53125 C 6.429688 -7.300781 6.769531 -6.96875 6.96875 -6.53125 C 7.164062 -6.09375 7.265625 -5.566406 7.265625 -4.953125 L 7.265625 -2.171875 L 7.40625 0 Z M 3.625 -1.671875 C 3.957031 -1.671875 4.234375 -1.734375 4.453125 -1.859375 C 4.671875 -1.992188 4.84375 -2.125 4.96875 -2.25 L 4.96875 -3.65625 L 3.65625 -3.453125 C 3.300781 -3.398438 3.054688 -3.289062 2.921875 -3.125 C 2.785156 -2.96875 2.71875 -2.773438 2.71875 -2.546875 L 2.71875 -2.453125 C 2.71875 -2.253906 2.785156 -2.070312 2.921875 -1.90625 C 3.066406 -1.75 3.300781 -1.671875 3.625 -1.671875 Z M 3.625 -1.671875 "/></g></g></g><g fill="#ffffff" fill-opacity="1"><g transform="translate(131.957598, 21.048375)"><g><path d="M 3.75 -7.6875 L 5.71875 -7.6875 L 5.71875 -5.6875 L 3.75 -5.6875 L 3.75 -2.921875 C 3.75 -2.441406 3.847656 -2.128906 4.046875 -1.984375 C 4.253906 -1.847656 4.53125 -1.78125 4.875 -1.78125 C 5 -1.78125 5.132812 -1.789062 5.28125 -1.8125 C 5.4375 -1.84375 5.535156 -1.867188 5.578125 -1.890625 L 5.578125 0 C 5.503906 0.0390625 5.363281 0.0820312 5.15625 0.125 C 4.957031 0.164062 4.6875 0.1875 4.34375 0.1875 C 3.757812 0.1875 3.25 0.0976562 2.8125 -0.078125 C 2.382812 -0.265625 2.050781 -0.566406 1.8125 -0.984375 C 1.570312 -1.398438 1.453125 -1.960938 1.453125 -2.671875 L 1.453125 -5.6875 L 0.28125 -5.6875 L 0.28125 -7.6875 L 1.453125 -7.6875 L 1.453125 -9.875 L 3.75 -9.875 Z M 3.75 -7.6875 "/></g></g></g><g fill="#ffffff" fill-opacity="1"><g transform="translate(138.209195, 21.048375)"><g><path d="M 3.828125 -1.546875 C 4.203125 -1.546875 4.46875 -1.617188 4.625 -1.765625 C 4.78125 -1.910156 4.859375 -2.09375 4.859375 -2.3125 C 4.859375 -2.550781 4.78125 -2.726562 4.625 -2.84375 C 4.46875 -2.957031 4.164062 -3.035156 3.71875 -3.078125 C 2.632812 -3.160156 1.84375 -3.359375 1.34375 -3.671875 C 0.84375 -3.992188 0.59375 -4.515625 0.59375 -5.234375 L 0.59375 -5.375 C 0.59375 -5.957031 0.734375 -6.429688 1.015625 -6.796875 C 1.304688 -7.171875 1.695312 -7.441406 2.1875 -7.609375 C 2.675781 -7.785156 3.222656 -7.875 3.828125 -7.875 C 4.960938 -7.875 5.785156 -7.640625 6.296875 -7.171875 C 6.804688 -6.710938 7.0625 -6.066406 7.0625 -5.234375 L 7.0625 -5.171875 L 4.8125 -5.171875 C 4.8125 -5.472656 4.734375 -5.707031 4.578125 -5.875 C 4.429688 -6.050781 4.179688 -6.140625 3.828125 -6.140625 C 3.515625 -6.140625 3.273438 -6.078125 3.109375 -5.953125 C 2.941406 -5.828125 2.859375 -5.65625 2.859375 -5.4375 C 2.859375 -5.207031 2.929688 -5.035156 3.078125 -4.921875 C 3.222656 -4.816406 3.519531 -4.742188 3.96875 -4.703125 C 4.613281 -4.648438 5.175781 -4.554688 5.65625 -4.421875 C 6.132812 -4.285156 6.503906 -4.070312 6.765625 -3.78125 C 7.035156 -3.488281 7.171875 -3.070312 7.171875 -2.53125 L 7.171875 -2.390625 C 7.171875 -1.597656 6.890625 -0.96875 6.328125 -0.5 C 5.773438 -0.0390625 4.941406 0.1875 3.828125 0.1875 C 2.703125 0.1875 1.867188 -0.0507812 1.328125 -0.53125 C 0.785156 -1.007812 0.515625 -1.617188 0.515625 -2.359375 L 0.515625 -2.4375 L 2.78125 -2.4375 C 2.78125 -2.1875 2.859375 -1.972656 3.015625 -1.796875 C 3.171875 -1.628906 3.441406 -1.546875 3.828125 -1.546875 Z M 3.828125 -1.546875 "/></g></g></g></svg>